<?xml version="1.0" encoding="UTF-8" standalone="no"?><svg xmlns="http://www.w3.org/2000/svg" xmlns:xlink="http://www.w3.org/1999/xlink" fill="#000000" height="100" preserveAspectRatio="xMidYMid meet" version="1" viewBox="2.2 0.2 184.2 100.0" width="184.2" zoomAndPan="magnify"><g id="change1_1"><path d="M2.2,0.2v26l31,24l-31,24v26l64.6-50L2.2,0.2z M3.5,74.8l31.8-24.6L3.5,25.5V2.8l61.2,47.3L3.5,97.5V74.8z M62,0.2v26l31,24l-31,24v26l64.6-50L62,0.2z M63.3,74.8l31.8-24.6L63.3,25.5V2.8l61.2,47.3L63.3,97.5V74.8z M121.8,0.2v26l31,24 l-31,24v26l64.6-50L121.8,0.2z M123.1,74.8l31.8-24.6l-31.8-24.6V2.8l61.2,47.3l-61.2,47.3V74.8z" fill="#ff4739"/></g></svg>