<?xml version="1.0" encoding="UTF-8"?><svg xmlns="http://www.w3.org/2000/svg" xmlns:xlink="http://www.w3.org/1999/xlink" height="500.0" preserveAspectRatio="xMidYMid meet" version="1.0" viewBox="0.0 0.0 500.0 500.0" width="500.0" zoomAndPan="magnify"><g><g><g><g><linearGradient gradientTransform="rotate(-64.286 1631.039 100.637)" gradientUnits="userSpaceOnUse" id="a" x1="838.498" x2="962.08" xlink:actuate="onLoad" xlink:show="other" xlink:type="simple" xmlns:xlink="http://www.w3.org/1999/xlink" y1="-1359.669" y2="-1236.086"><stop offset="0" stop-color="#ffd03f"/><stop offset=".197" stop-color="#fdca3a"/><stop offset=".464" stop-color="#f6b82b"/><stop offset=".771" stop-color="#eb9c12"/><stop offset=".899" stop-color="#e58e06"/><stop offset="1" stop-color="#df8800"/></linearGradient><circle cx="49.92" cy="153.65" fill="url(#a)" r="27.93"/><linearGradient gradientTransform="rotate(-77.144 1630.878 101.285)" gradientUnits="userSpaceOnUse" id="b" x1="1119.867" x2="1243.458" xlink:actuate="onLoad" xlink:show="other" xlink:type="simple" xmlns:xlink="http://www.w3.org/1999/xlink" y1="-1492.723" y2="-1369.132"><stop offset="0" stop-color="#ffd03f"/><stop offset=".197" stop-color="#fdca3a"/><stop offset=".464" stop-color="#f6b82b"/><stop offset=".771" stop-color="#eb9c12"/><stop offset=".899" stop-color="#e58e06"/><stop offset="1" stop-color="#df8800"/></linearGradient><path d="M39.71,173.36 c15.04,3.43,24.44,18.4,21.01,33.44c-3.43,15.04-18.4,24.44-33.44,21.01c-15.04-3.43-24.44-18.4-21.01-33.44 C9.7,179.33,24.67,169.93,39.71,173.36z" fill="url(#b)"/><linearGradient gradientTransform="rotate(-90 1631 101)" gradientUnits="userSpaceOnUse" id="c" x1="1423.236" x2="1546.823" xlink:actuate="onLoad" xlink:show="other" xlink:type="simple" xmlns:xlink="http://www.w3.org/1999/xlink" y1="-1560.838" y2="-1437.251"><stop offset="0" stop-color="#ffd03f"/><stop offset=".197" stop-color="#fdca3a"/><stop offset=".464" stop-color="#f6b82b"/><stop offset=".771" stop-color="#eb9c12"/><stop offset=".899" stop-color="#e58e06"/><stop offset="1" stop-color="#df8800"/></linearGradient><circle cx="27.93" cy="250" fill="url(#c)" r="27.93"/><linearGradient gradientTransform="scale(-1) rotate(77.144 126.91 -2045.416)" gradientUnits="userSpaceOnUse" id="d" x1="1734.673" x2="1858.264" xlink:actuate="onLoad" xlink:show="other" xlink:type="simple" xmlns:xlink="http://www.w3.org/1999/xlink" y1="-1559.304" y2="-1435.713"><stop offset="0" stop-color="#ffd03f"/><stop offset=".197" stop-color="#fdca3a"/><stop offset=".464" stop-color="#f6b82b"/><stop offset=".771" stop-color="#eb9c12"/><stop offset=".899" stop-color="#e58e06"/><stop offset="1" stop-color="#df8800"/></linearGradient><circle cx="33.49" cy="299.42" fill="url(#d)" r="27.93"/><linearGradient gradientTransform="scale(-1) rotate(64.286 160.378 -2595.539)" gradientUnits="userSpaceOnUse" id="e" x1="2036.827" x2="2160.41" xlink:actuate="onLoad" xlink:show="other" xlink:type="simple" xmlns:xlink="http://www.w3.org/1999/xlink" y1="-1488.94" y2="-1365.357"><stop offset="0" stop-color="#ffd03f"/><stop offset=".197" stop-color="#fdca3a"/><stop offset=".464" stop-color="#f6b82b"/><stop offset=".771" stop-color="#eb9c12"/><stop offset=".899" stop-color="#e58e06"/><stop offset="1" stop-color="#df8800"/></linearGradient><circle cx="49.92" cy="346.35" fill="url(#e)" r="27.93"/><g><linearGradient gradientUnits="userSpaceOnUse" id="f" x1="191.236" x2="314.823" xlink:actuate="onLoad" xlink:show="other" xlink:type="simple" xmlns:xlink="http://www.w3.org/1999/xlink" y1="-30.838" y2="92.749"><stop offset="0" stop-color="#ffd03f"/><stop offset=".197" stop-color="#fdca3a"/><stop offset=".464" stop-color="#f6b82b"/><stop offset=".771" stop-color="#eb9c12"/><stop offset=".899" stop-color="#e58e06"/><stop offset="1" stop-color="#df8800"/></linearGradient><circle cx="250" cy="27.93" fill="url(#f)" r="27.93"/><linearGradient gradientTransform="rotate(-12.856 1630.716 102.692)" gradientUnits="userSpaceOnUse" id="g" x1="193.073" x2="316.664" xlink:actuate="onLoad" xlink:show="other" xlink:type="simple" xmlns:xlink="http://www.w3.org/1999/xlink" y1="-341.75" y2="-218.159"><stop offset="0" stop-color="#ffd03f"/><stop offset=".197" stop-color="#fdca3a"/><stop offset=".464" stop-color="#f6b82b"/><stop offset=".771" stop-color="#eb9c12"/><stop offset=".899" stop-color="#e58e06"/><stop offset="1" stop-color="#df8800"/></linearGradient><circle cx="200.58" cy="33.49" fill="url(#g)" r="27.93"/><linearGradient gradientTransform="rotate(-25.714 1631.385 100.232)" gradientUnits="userSpaceOnUse" id="h" x1="263.053" x2="386.636" xlink:actuate="onLoad" xlink:show="other" xlink:type="simple" xmlns:xlink="http://www.w3.org/1999/xlink" y1="-645.034" y2="-521.451"><stop offset="0" stop-color="#ffd03f"/><stop offset=".197" stop-color="#fdca3a"/><stop offset=".464" stop-color="#f6b82b"/><stop offset=".771" stop-color="#eb9c12"/><stop offset=".899" stop-color="#e58e06"/><stop offset="1" stop-color="#df8800"/></linearGradient><circle cx="153.65" cy="49.92" fill="url(#h)" r="27.93"/><linearGradient gradientTransform="rotate(-38.574 1630.389 101.138)" gradientUnits="userSpaceOnUse" id="i" x1="399.584" x2="523.173" xlink:actuate="onLoad" xlink:show="other" xlink:type="simple" xmlns:xlink="http://www.w3.org/1999/xlink" y1="-924.025" y2="-800.436"><stop offset="0" stop-color="#ffd03f"/><stop offset=".197" stop-color="#fdca3a"/><stop offset=".464" stop-color="#f6b82b"/><stop offset=".771" stop-color="#eb9c12"/><stop offset=".899" stop-color="#e58e06"/><stop offset="1" stop-color="#df8800"/></linearGradient><circle cx="111.54" cy="76.38" fill="url(#i)" r="27.93"/><linearGradient gradientTransform="rotate(-51.428 1631.32 101.353)" gradientUnits="userSpaceOnUse" id="j" x1="595.048" x2="718.638" xlink:actuate="onLoad" xlink:show="other" xlink:type="simple" xmlns:xlink="http://www.w3.org/1999/xlink" y1="-1166.761" y2="-1043.172"><stop offset="0" stop-color="#ffd03f"/><stop offset=".197" stop-color="#fdca3a"/><stop offset=".464" stop-color="#f6b82b"/><stop offset=".771" stop-color="#eb9c12"/><stop offset=".899" stop-color="#e58e06"/><stop offset="1" stop-color="#df8800"/></linearGradient><circle cx="76.38" cy="111.54" fill="url(#j)" r="27.93"/><linearGradient gradientTransform="rotate(-128.572 1630.877 101.194)" gradientUnits="userSpaceOnUse" id="k" x1="2316.786" x2="2440.376" xlink:actuate="onLoad" xlink:show="other" xlink:type="simple" xmlns:xlink="http://www.w3.org/1999/xlink" y1="-1352.043" y2="-1228.453"><stop offset="0" stop-color="#ffd03f"/><stop offset=".197" stop-color="#fdca3a"/><stop offset=".464" stop-color="#f6b82b"/><stop offset=".771" stop-color="#eb9c12"/><stop offset=".899" stop-color="#e58e06"/><stop offset="1" stop-color="#df8800"/></linearGradient><circle cx="76.38" cy="388.46" fill="url(#k)" r="27.93"/><linearGradient gradientTransform="rotate(-141.426 1631.219 101.01)" gradientUnits="userSpaceOnUse" id="l" x1="2559.426" x2="2683.015" xlink:actuate="onLoad" xlink:show="other" xlink:type="simple" xmlns:xlink="http://www.w3.org/1999/xlink" y1="-1157.538" y2="-1033.949"><stop offset="0" stop-color="#ffd03f"/><stop offset=".197" stop-color="#fdca3a"/><stop offset=".464" stop-color="#f6b82b"/><stop offset=".771" stop-color="#eb9c12"/><stop offset=".899" stop-color="#e58e06"/><stop offset="1" stop-color="#df8800"/></linearGradient><circle cx="111.54" cy="423.62" fill="url(#l)" r="27.93"/><linearGradient gradientTransform="scale(-1) rotate(25.714 441.724 -7145.162)" gradientUnits="userSpaceOnUse" id="m" x1="2751.458" x2="2875.041" xlink:actuate="onLoad" xlink:show="other" xlink:type="simple" xmlns:xlink="http://www.w3.org/1999/xlink" y1="-913.535" y2="-789.952"><stop offset="0" stop-color="#ffd03f"/><stop offset=".197" stop-color="#fdca3a"/><stop offset=".464" stop-color="#f6b82b"/><stop offset=".771" stop-color="#eb9c12"/><stop offset=".899" stop-color="#e58e06"/><stop offset="1" stop-color="#df8800"/></linearGradient><circle cx="153.65" cy="450.08" fill="url(#m)" r="27.93"/><linearGradient gradientTransform="scale(-1) rotate(12.856 898.282 -14477.332)" gradientUnits="userSpaceOnUse" id="n" x1="2885.696" x2="3009.287" xlink:actuate="onLoad" xlink:show="other" xlink:type="simple" xmlns:xlink="http://www.w3.org/1999/xlink" y1="-632.016" y2="-508.425"><stop offset="0" stop-color="#ffd03f"/><stop offset=".197" stop-color="#fdca3a"/><stop offset=".464" stop-color="#f6b82b"/><stop offset=".771" stop-color="#eb9c12"/><stop offset=".899" stop-color="#e58e06"/><stop offset="1" stop-color="#df8800"/></linearGradient><circle cx="200.58" cy="466.51" fill="url(#n)" r="27.93"/><linearGradient gradientTransform="rotate(180 1631 101)" gradientUnits="userSpaceOnUse" id="o" x1="2953.236" x2="3076.823" xlink:actuate="onLoad" xlink:show="other" xlink:type="simple" xmlns:xlink="http://www.w3.org/1999/xlink" y1="-328.838" y2="-205.251"><stop offset="0" stop-color="#ffd03f"/><stop offset=".197" stop-color="#fdca3a"/><stop offset=".464" stop-color="#f6b82b"/><stop offset=".771" stop-color="#eb9c12"/><stop offset=".899" stop-color="#e58e06"/><stop offset="1" stop-color="#df8800"/></linearGradient><circle cx="250" cy="472.07" fill="url(#o)" r="27.93"/><linearGradient gradientTransform="scale(-1) rotate(-12.856 -896.822 14478.6)" gradientUnits="userSpaceOnUse" id="p" x1="2952.227" x2="3075.819" xlink:actuate="onLoad" xlink:show="other" xlink:type="simple" xmlns:xlink="http://www.w3.org/1999/xlink" y1="-17.704" y2="105.887"><stop offset="0" stop-color="#ffd03f"/><stop offset=".197" stop-color="#fdca3a"/><stop offset=".464" stop-color="#f6b82b"/><stop offset=".771" stop-color="#eb9c12"/><stop offset=".899" stop-color="#e58e06"/><stop offset="1" stop-color="#df8800"/></linearGradient><circle cx="299.42" cy="466.51" fill="url(#p)" r="27.93"/><linearGradient gradientTransform="scale(-1) rotate(-25.714 -442.05 7144.843)" gradientUnits="userSpaceOnUse" id="q" x1="2880.733" x2="3004.316" xlink:actuate="onLoad" xlink:show="other" xlink:type="simple" xmlns:xlink="http://www.w3.org/1999/xlink" y1="284.834" y2="408.417"><stop offset="0" stop-color="#ffd03f"/><stop offset=".197" stop-color="#fdca3a"/><stop offset=".464" stop-color="#f6b82b"/><stop offset=".771" stop-color="#eb9c12"/><stop offset=".899" stop-color="#e58e06"/><stop offset="1" stop-color="#df8800"/></linearGradient><circle cx="346.35" cy="450.08" fill="url(#q)" r="27.93"/><linearGradient gradientTransform="rotate(141.426 1631.048 101.214)" gradientUnits="userSpaceOnUse" id="r" x1="2744.804" x2="2868.393" xlink:actuate="onLoad" xlink:show="other" xlink:type="simple" xmlns:xlink="http://www.w3.org/1999/xlink" y1="565.16" y2="688.749"><stop offset="0" stop-color="#ffd03f"/><stop offset=".197" stop-color="#fdca3a"/><stop offset=".464" stop-color="#f6b82b"/><stop offset=".771" stop-color="#eb9c12"/><stop offset=".899" stop-color="#e58e06"/><stop offset="1" stop-color="#df8800"/></linearGradient><circle cx="388.46" cy="423.62" fill="url(#r)" r="27.93"/><linearGradient gradientTransform="rotate(128.572 1631.17 100.846)" gradientUnits="userSpaceOnUse" id="s" x1="2550.203" x2="2673.793" xlink:actuate="onLoad" xlink:show="other" xlink:type="simple" xmlns:xlink="http://www.w3.org/1999/xlink" y1="806.839" y2="930.429"><stop offset="0" stop-color="#ffd03f"/><stop offset=".197" stop-color="#fdca3a"/><stop offset=".464" stop-color="#f6b82b"/><stop offset=".771" stop-color="#eb9c12"/><stop offset=".899" stop-color="#e58e06"/><stop offset="1" stop-color="#df8800"/></linearGradient><circle cx="423.62" cy="388.46" fill="url(#s)" r="27.93"/><linearGradient gradientTransform="scale(-1) rotate(-64.286 -160.64 2595.274)" gradientUnits="userSpaceOnUse" id="t" x1="2305.325" x2="2428.907" xlink:actuate="onLoad" xlink:show="other" xlink:type="simple" xmlns:xlink="http://www.w3.org/1999/xlink" y1="999.425" y2="1123.008"><stop offset="0" stop-color="#ffd03f"/><stop offset=".197" stop-color="#fdca3a"/><stop offset=".464" stop-color="#f6b82b"/><stop offset=".771" stop-color="#eb9c12"/><stop offset=".899" stop-color="#e58e06"/><stop offset="1" stop-color="#df8800"/></linearGradient><circle cx="450.08" cy="346.35" fill="url(#t)" r="27.93"/><linearGradient gradientTransform="scale(-1) rotate(-77.144 -126.827 2045.526)" gradientUnits="userSpaceOnUse" id="u" x1="2024.99" x2="2148.581" xlink:actuate="onLoad" xlink:show="other" xlink:type="simple" xmlns:xlink="http://www.w3.org/1999/xlink" y1="1133.813" y2="1257.404"><stop offset="0" stop-color="#ffd03f"/><stop offset=".197" stop-color="#fdca3a"/><stop offset=".464" stop-color="#f6b82b"/><stop offset=".771" stop-color="#eb9c12"/><stop offset=".899" stop-color="#e58e06"/><stop offset="1" stop-color="#df8800"/></linearGradient><circle cx="466.51" cy="299.42" fill="url(#u)" r="27.93"/><linearGradient gradientTransform="rotate(90 1631 101)" gradientUnits="userSpaceOnUse" id="v" x1="1721.236" x2="1844.823" xlink:actuate="onLoad" xlink:show="other" xlink:type="simple" xmlns:xlink="http://www.w3.org/1999/xlink" y1="1201.162" y2="1324.749"><stop offset="0" stop-color="#ffd03f"/><stop offset=".197" stop-color="#fdca3a"/><stop offset=".464" stop-color="#f6b82b"/><stop offset=".771" stop-color="#eb9c12"/><stop offset=".899" stop-color="#e58e06"/><stop offset="1" stop-color="#df8800"/></linearGradient><circle cx="472.07" cy="250" fill="url(#v)" r="27.93"/><linearGradient gradientTransform="rotate(77.144 1631.31 100.832)" gradientUnits="userSpaceOnUse" id="w" x1="1410.628" x2="1534.219" xlink:actuate="onLoad" xlink:show="other" xlink:type="simple" xmlns:xlink="http://www.w3.org/1999/xlink" y1="1199.85" y2="1323.441"><stop offset="0" stop-color="#ffd03f"/><stop offset=".197" stop-color="#fdca3a"/><stop offset=".464" stop-color="#f6b82b"/><stop offset=".771" stop-color="#eb9c12"/><stop offset=".899" stop-color="#e58e06"/><stop offset="1" stop-color="#df8800"/></linearGradient><circle cx="466.51" cy="200.58" fill="url(#w)" r="27.93"/><linearGradient gradientTransform="rotate(64.286 1630.586 101.092)" gradientUnits="userSpaceOnUse" id="x" x1="1106.959" x2="1230.542" xlink:actuate="onLoad" xlink:show="other" xlink:type="simple" xmlns:xlink="http://www.w3.org/1999/xlink" y1="1128.74" y2="1252.323"><stop offset="0" stop-color="#ffd03f"/><stop offset=".197" stop-color="#fdca3a"/><stop offset=".464" stop-color="#f6b82b"/><stop offset=".771" stop-color="#eb9c12"/><stop offset=".899" stop-color="#e58e06"/><stop offset="1" stop-color="#df8800"/></linearGradient><circle cx="450.08" cy="153.65" fill="url(#x)" r="27.93"/><linearGradient gradientTransform="rotate(51.428 1631.403 101.255)" gradientUnits="userSpaceOnUse" id="y" x1="827.601" x2="951.191" xlink:actuate="onLoad" xlink:show="other" xlink:type="simple" xmlns:xlink="http://www.w3.org/1999/xlink" y1="993.178" y2="1116.767"><stop offset="0" stop-color="#ffd03f"/><stop offset=".197" stop-color="#fdca3a"/><stop offset=".464" stop-color="#f6b82b"/><stop offset=".771" stop-color="#eb9c12"/><stop offset=".899" stop-color="#e58e06"/><stop offset="1" stop-color="#df8800"/></linearGradient><circle cx="423.62" cy="111.54" fill="url(#y)" r="27.93"/><linearGradient gradientTransform="rotate(38.574 1631.03 100.374)" gradientUnits="userSpaceOnUse" id="z" x1="585.825" x2="709.415" xlink:actuate="onLoad" xlink:show="other" xlink:type="simple" xmlns:xlink="http://www.w3.org/1999/xlink" y1="797.616" y2="921.206"><stop offset="0" stop-color="#ffd03f"/><stop offset=".197" stop-color="#fdca3a"/><stop offset=".464" stop-color="#f6b82b"/><stop offset=".771" stop-color="#eb9c12"/><stop offset=".899" stop-color="#e58e06"/><stop offset="1" stop-color="#df8800"/></linearGradient><circle cx="388.46" cy="76.38" fill="url(#z)" r="27.93"/><linearGradient gradientTransform="rotate(25.714 1630.173 101.442)" gradientUnits="userSpaceOnUse" id="A" x1="392.364" x2="515.947" xlink:actuate="onLoad" xlink:show="other" xlink:type="simple" xmlns:xlink="http://www.w3.org/1999/xlink" y1="553.292" y2="676.875"><stop offset="0" stop-color="#ffd03f"/><stop offset=".197" stop-color="#fdca3a"/><stop offset=".464" stop-color="#f6b82b"/><stop offset=".771" stop-color="#eb9c12"/><stop offset=".899" stop-color="#e58e06"/><stop offset="1" stop-color="#df8800"/></linearGradient><circle cx="346.35" cy="49.92" fill="url(#A)" r="27.93"/><linearGradient gradientTransform="rotate(12.856 1632.848 100.581)" gradientUnits="userSpaceOnUse" id="B" x1="259.16" x2="382.751" xlink:actuate="onLoad" xlink:show="other" xlink:type="simple" xmlns:xlink="http://www.w3.org/1999/xlink" y1="273.106" y2="396.697"><stop offset="0" stop-color="#ffd03f"/><stop offset=".197" stop-color="#fdca3a"/><stop offset=".464" stop-color="#f6b82b"/><stop offset=".771" stop-color="#eb9c12"/><stop offset=".899" stop-color="#e58e06"/><stop offset="1" stop-color="#df8800"/></linearGradient><circle cx="299.42" cy="33.49" fill="url(#B)" r="27.93"/><g><linearGradient gradientUnits="userSpaceOnUse" id="C" x1="87.585" x2="431.08" xlink:actuate="onLoad" xlink:show="other" xlink:type="simple" xmlns:xlink="http://www.w3.org/1999/xlink" y1="55.227" y2="467.157"><stop offset="0" stop-color="#ffd03f"/><stop offset=".197" stop-color="#fdca3a"/><stop offset=".464" stop-color="#f6b82b"/><stop offset=".771" stop-color="#eb9c12"/><stop offset=".899" stop-color="#e58e06"/><stop offset="1" stop-color="#df8800"/></linearGradient><circle cx="250" cy="250" fill="url(#C)" r="223.4"/><g id="change1_2"><circle cx="250" cy="250" fill="#FFF" r="156.05"/></g><g fill="#FFF" id="change1_3"><path d="M166.92,98.85c1.45,0.01,2.97-0.06,4.58-0.21c1.6-0.15,2.72-0.17,3.36-0.05 c0.63,0.12,1.18,0.52,1.64,1.21c0.33,0.49,0.43,1.13,0.3,1.92c-0.13,0.79-0.51,1.4-1.15,1.83c-0.52,0.35-1.27,0.6-2.23,0.76 c-0.97,0.16-2.17,0.25-3.6,0.28c-1.43,0.03-3.03,0.01-4.8-0.05c-1.47,2.62-3.82,5-7.05,7.16c-2.62,1.75-5.25,2.9-7.88,3.45 c-2.63,0.55-5.18,0.51-7.64-0.12c-2.46-0.63-4.76-1.79-6.92-3.48c-2.15-1.69-4.08-3.8-5.78-6.35 c-1.73-2.59-2.94-5.21-3.64-7.87c-0.7-2.66-0.85-5.21-0.45-7.67c0.4-2.46,1.34-4.76,2.83-6.92c1.49-2.15,3.52-4.09,6.09-5.81 c3.5-2.33,6.97-3.62,10.42-3.87c3.45-0.25,6.69,0.5,9.72,2.25c3.03,1.76,5.72,4.4,8.07,7.92 C166.36,88.58,167.74,93.79,166.92,98.85z M159.08,98.69c0.22-1.72,0.07-3.48-0.47-5.27c-0.54-1.79-1.46-3.66-2.77-5.63 c-1.65-2.47-3.47-4.34-5.47-5.62c-2-1.28-4.05-1.89-6.15-1.83c-2.1,0.06-4.1,0.73-6.02,2c-1.36,0.91-2.45,2.01-3.27,3.29 c-0.82,1.29-1.31,2.7-1.49,4.23c-0.18,1.54,0,3.23,0.53,5.08c0.53,1.85,1.43,3.72,2.7,5.62c2.59,3.88,5.48,6.26,8.68,7.15 c3.2,0.89,6.19,0.41,8.94-1.43c1.13-0.76,2.14-1.77,3.02-3.04c-1.08-0.06-2.34,0.01-3.77,0.19 c-1.44,0.18-2.45,0.26-3.05,0.24c-0.59-0.03-1.07-0.31-1.43-0.84c-0.31-0.46-0.39-0.99-0.24-1.6 c0.15-0.61,0.45-1.07,0.91-1.37C151.14,98.94,154.25,98.55,159.08,98.69z" fill="inherit"/><path d="M172.96,82.49l-6.48-18.37c-0.55-1.56-0.61-2.86-0.18-3.89c0.43-1.03,1.22-1.75,2.36-2.15 c1.2-0.42,2.29-0.37,3.27,0.17c0.98,0.53,1.74,1.58,2.3,3.15l6.63,18.79c0.75,2.14,1.62,3.84,2.6,5.1 c0.98,1.27,2.22,2.08,3.72,2.44c1.49,0.36,3.34,0.16,5.53-0.62c3.02-1.07,4.88-2.62,5.56-4.67c0.68-2.05,0.45-4.7-0.7-7.97 l-6.68-18.95c-0.56-1.58-0.63-2.88-0.2-3.9c0.42-1.02,1.22-1.73,2.38-2.14c1.16-0.41,2.24-0.36,3.24,0.16 c0.99,0.52,1.77,1.57,2.33,3.15l6.48,18.37c1.05,2.99,1.64,5.58,1.76,7.79c0.12,2.2-0.36,4.35-1.44,6.43 c-0.94,1.78-2.22,3.28-3.86,4.52c-1.63,1.24-3.68,2.3-6.15,3.16c-2.94,1.04-5.58,1.61-7.92,1.72 c-2.34,0.11-4.42-0.26-6.22-1.12c-1.81-0.86-3.39-2.21-4.75-4.07C175.16,87.74,173.97,85.37,172.96,82.49z" fill="inherit"/><path d="M239.8,78.6l-2.51-4.83l-16.36,1.91l-1.32,5.38c-0.51,2.1-1,3.53-1.44,4.3 c-0.45,0.77-1.28,1.22-2.48,1.36c-1.02,0.12-1.97-0.15-2.85-0.81c-0.87-0.66-1.37-1.46-1.48-2.41 c-0.06-0.55-0.04-1.13,0.08-1.73s0.32-1.46,0.62-2.55l7.24-27.33c0.21-0.78,0.45-1.73,0.74-2.83 c0.29-1.1,0.63-2.02,1.01-2.78c0.38-0.75,0.93-1.38,1.64-1.9c0.71-0.52,1.62-0.84,2.74-0.97c1.13-0.13,2.11-0.03,2.92,0.31 c0.81,0.34,1.49,0.82,2.03,1.45c0.55,0.62,1.02,1.3,1.44,2.04c0.41,0.74,0.94,1.73,1.59,2.97l13.55,24.73 c1.05,1.88,1.63,3.27,1.74,4.16c0.11,0.93-0.18,1.83-0.87,2.7c-0.69,0.87-1.58,1.37-2.68,1.5c-0.64,0.07-1.2,0.02-1.69-0.15 c-0.48-0.18-0.9-0.44-1.26-0.8c-0.36-0.36-0.76-0.92-1.21-1.69C240.52,79.88,240.13,79.19,239.8,78.6z M222.35,69.32 l12.02-1.41l-8.01-15.9L222.35,69.32z" fill="inherit"/><path d="M264.52,47.43l-2.76,29.36l16.56,1.56c1.32,0.12,2.3,0.54,2.95,1.25c0.65,0.71,0.92,1.55,0.83,2.52 c-0.09,0.99-0.52,1.76-1.27,2.31c-0.76,0.55-1.8,0.76-3.14,0.63l-19.73-1.85c-1.78-0.17-3.02-0.68-3.73-1.54 c-0.71-0.86-0.98-2.17-0.81-3.93l2.92-31.06c0.16-1.65,0.64-2.85,1.46-3.61c0.82-0.76,1.84-1.08,3.05-0.96 c1.23,0.12,2.19,0.62,2.87,1.51C264.41,44.48,264.68,45.76,264.52,47.43z" fill="inherit"/><path d="M286.94,82.84l7.6-31c0.39-1.61,1.06-2.73,1.99-3.35c0.93-0.63,1.98-0.8,3.14-0.51 c1.2,0.29,2.07,0.93,2.62,1.91c0.55,0.98,0.62,2.28,0.22,3.91l-7.6,31c-0.4,1.63-1.07,2.75-2.01,3.38 c-0.94,0.62-2.01,0.79-3.21,0.49c-1.15-0.28-1.99-0.92-2.53-1.92C286.61,85.75,286.54,84.45,286.94,82.84z" fill="inherit"/><path d="M338.63,69.57l-8.28-3.42l-11.23,27.2c-0.65,1.57-1.48,2.58-2.49,3.05 c-1.01,0.47-2.07,0.48-3.18,0.02c-1.12-0.46-1.88-1.23-2.27-2.28c-0.39-1.06-0.27-2.36,0.37-3.91l11.23-27.2l-8.28-3.42 c-1.29-0.53-2.14-1.22-2.53-2.05c-0.39-0.83-0.4-1.71-0.01-2.65c0.4-0.97,1.05-1.6,1.93-1.89c0.89-0.29,1.95-0.18,3.2,0.33 l24.11,9.96c1.31,0.54,2.17,1.23,2.57,2.08c0.4,0.84,0.41,1.73,0.02,2.67c-0.39,0.94-1.02,1.56-1.9,1.86 C341.01,70.22,339.92,70.11,338.63,69.57z" fill="inherit"/><path d="M341.98,105.61l7.18-10.66l0.36-18.25c0.05-1.63,0.15-2.87,0.28-3.71c0.13-0.84,0.36-1.5,0.68-1.97 c0.52-0.78,1.28-1.25,2.26-1.41c0.98-0.16,1.92,0.06,2.81,0.66c0.93,0.63,1.46,1.37,1.59,2.22c0.13,0.85,0.14,2.39,0.04,4.61 l-0.59,14.43l13.22-5.92c0.8-0.37,1.48-0.68,2.03-0.93c0.55-0.25,1.1-0.46,1.67-0.62c0.56-0.16,1.11-0.22,1.62-0.16 c0.52,0.06,1.05,0.27,1.6,0.64c0.86,0.58,1.38,1.34,1.58,2.28c0.2,0.94,0.05,1.78-0.45,2.52c-0.4,0.6-0.95,1.09-1.64,1.49 c-0.69,0.4-1.74,0.89-3.16,1.47l-17.1,7.24l-7.18,10.66c-0.94,1.39-1.96,2.21-3.06,2.47c-1.1,0.25-2.15,0.05-3.15-0.62 c-1.01-0.68-1.6-1.57-1.77-2.67C340.65,108.27,341.04,107.02,341.98,105.61z" fill="inherit"/></g><g><g><linearGradient gradientUnits="userSpaceOnUse" id="D" x1="180.996" x2="282.005" xlink:actuate="onLoad" xlink:show="other" xlink:type="simple" xmlns:xlink="http://www.w3.org/1999/xlink" y1="333.272" y2="152.425"><stop offset="0" stop-color="#ffd03f"/><stop offset=".197" stop-color="#fdca3a"/><stop offset=".464" stop-color="#f6b82b"/><stop offset=".771" stop-color="#eb9c12"/><stop offset=".899" stop-color="#e58e06"/><stop offset="1" stop-color="#df8800"/></linearGradient><path d="M357.79 205.68L300.55 166.29 201.5 292.52 153.94 232.85 120.82 252.07 201.81 340.99 201.81 340.99z" fill="url(#D)"/><linearGradient gradientUnits="userSpaceOnUse" id="E" x1="308.722" x2="368.881" xlink:actuate="onLoad" xlink:show="other" xlink:type="simple" xmlns:xlink="http://www.w3.org/1999/xlink" y1="162.537" y2="207.387"><stop offset="0" stop-color="#ffd03f"/><stop offset=".197" stop-color="#fdca3a"/><stop offset=".464" stop-color="#f6b82b"/><stop offset=".771" stop-color="#eb9c12"/><stop offset=".899" stop-color="#e58e06"/><stop offset="1" stop-color="#df8800"/></linearGradient><path d="M320.74 164.94L300.55 166.29 357.79 205.68 377.99 204.33z" fill="url(#E)"/><linearGradient gradientUnits="userSpaceOnUse" id="F" x1="162.946" x2="208.048" xlink:actuate="onLoad" xlink:show="other" xlink:type="simple" xmlns:xlink="http://www.w3.org/1999/xlink" y1="228.64" y2="290.118"><stop offset="0" stop-color="#ffd03f"/><stop offset=".197" stop-color="#fdca3a"/><stop offset=".464" stop-color="#f6b82b"/><stop offset=".771" stop-color="#eb9c12"/><stop offset=".899" stop-color="#e58e06"/><stop offset="1" stop-color="#df8800"/></linearGradient><path d="M174.13 231.51L153.94 232.85 201.5 292.52 212.05 279.08z" fill="url(#F)"/><linearGradient gradientUnits="userSpaceOnUse" id="G" x1="368.624" x2="211.78" xlink:actuate="onLoad" xlink:show="other" xlink:type="simple" xmlns:xlink="http://www.w3.org/1999/xlink" y1="201.671" y2="343.098"><stop offset="0" stop-color="#ffd03f"/><stop offset=".197" stop-color="#fdca3a"/><stop offset=".464" stop-color="#f6b82b"/><stop offset=".771" stop-color="#eb9c12"/><stop offset=".899" stop-color="#e58e06"/><stop offset="1" stop-color="#df8800"/></linearGradient><path d="M201.81 340.99L222 339.64 377.99 204.33 357.79 205.68z" fill="url(#G)"/></g></g><g fill="#FFF" id="change1_1"><path d="M104.04,376.26l-6.34,4.48c-0.84,0.6-1.57,0.99-2.19,1.18c-0.62,0.19-1.29,0.21-2.01,0.05 c-0.72-0.16-1.51-0.45-2.38-0.87c-2.5-1.23-4.65-2.6-6.45-4.1c-1.8-1.5-3.48-3.34-5.02-5.52c-1.8-2.54-3.04-5.14-3.74-7.78 c-0.7-2.64-0.82-5.23-0.37-7.76c0.45-2.53,1.45-4.94,3.01-7.23c1.56-2.29,3.65-4.36,6.27-6.21c2.57-1.82,5.2-3.1,7.88-3.84 c2.68-0.74,5.29-0.9,7.83-0.46c2.54,0.44,4.96,1.44,7.26,3.02c2.3,1.58,4.41,3.72,6.32,6.43c1.57,2.23,2.67,4.41,3.29,6.54 c0.62,2.14,0.85,4.06,0.71,5.76c-0.15,1.71-0.53,3.19-1.16,4.44c-0.63,1.25-1.33,2.16-2.11,2.71 c-0.84,0.6-1.78,0.79-2.82,0.59c-1.04-0.2-1.86-0.74-2.48-1.62c-0.34-0.48-0.55-1.02-0.64-1.63c-0.09-0.6-0.04-1.2,0.16-1.79 c0.71-1.74,1.19-3.13,1.45-4.17c0.26-1.04,0.27-2.2,0.03-3.49c-0.23-1.29-0.88-2.69-1.95-4.19c-1.1-1.55-2.34-2.74-3.74-3.59 c-1.4-0.84-2.91-1.33-4.53-1.48c-1.63-0.15-3.34,0.07-5.14,0.66c-1.8,0.58-3.59,1.51-5.38,2.77 c-3.88,2.74-6.24,5.75-7.07,9.01c-0.83,3.26-0.12,6.49,2.14,9.68c1.1,1.55,2.33,2.86,3.7,3.94c1.37,1.07,2.92,2.04,4.67,2.91 l5.37-3.8l-3.67-5.19c-0.88-1.25-1.36-2.33-1.44-3.23c-0.08-0.91,0.34-1.68,1.24-2.32c0.74-0.52,1.53-0.69,2.39-0.49 c0.86,0.19,1.61,0.75,2.26,1.67l5.38,7.6c0.66,0.93,1.14,1.78,1.43,2.54c0.29,0.76,0.29,1.55,0,2.35 C105.9,374.64,105.19,375.45,104.04,376.26z" fill="inherit"/><path d="M111.13,383.33l12.81-14.68c1.09-1.25,2.19-1.94,3.3-2.08c1.11-0.13,2.12,0.2,3.03,1 c0.96,0.84,1.45,1.81,1.46,2.93c0.02,1.12-0.52,2.3-1.61,3.55l-13.1,15.01c-1.49,1.71-2.54,3.3-3.16,4.78 c-0.62,1.48-0.72,2.96-0.29,4.44c0.42,1.48,1.51,2.98,3.25,4.51c2.42,2.11,4.68,2.96,6.8,2.54c2.12-0.41,4.32-1.92,6.6-4.53 l13.21-15.14c1.1-1.26,2.2-1.96,3.29-2.1c1.09-0.13,2.11,0.21,3.04,1.02c0.93,0.81,1.41,1.78,1.45,2.9 c0.04,1.12-0.5,2.31-1.6,3.58l-12.81,14.68c-2.08,2.39-4.05,4.18-5.91,5.37c-1.86,1.19-3.96,1.83-6.3,1.91 c-2.01,0.06-3.95-0.32-5.84-1.13c-1.88-0.81-3.81-2.08-5.78-3.8c-2.35-2.05-4.14-4.06-5.4-6.05 c-1.25-1.98-1.95-3.97-2.09-5.97c-0.14-1.99,0.26-4.04,1.21-6.13C107.64,387.83,109.12,385.63,111.13,383.33z" fill="inherit"/><path d="M160.12,433.36l0.77-5.39L146.48,420l-4.21,3.61c-1.64,1.41-2.87,2.29-3.68,2.65 c-0.81,0.36-1.75,0.25-2.81-0.34c-0.9-0.5-1.52-1.27-1.84-2.32c-0.33-1.04-0.26-1.99,0.21-2.82 c0.27-0.48,0.62-0.94,1.07-1.37c0.45-0.43,1.11-1,1.99-1.71l21.81-18c0.62-0.52,1.37-1.14,2.25-1.87 c0.88-0.73,1.69-1.28,2.44-1.67c0.75-0.39,1.56-0.58,2.44-0.59c0.88-0.01,1.81,0.26,2.79,0.8c1,0.55,1.73,1.2,2.19,1.95 c0.46,0.75,0.73,1.54,0.81,2.36c0.08,0.82,0.07,1.66-0.02,2.5c-0.1,0.84-0.25,1.95-0.44,3.34l-3.4,28 c-0.24,2.14-0.58,3.61-1.01,4.4c-0.46,0.82-1.22,1.39-2.28,1.69c-1.06,0.31-2.08,0.19-3.05-0.34 c-0.56-0.31-0.99-0.68-1.28-1.11c-0.29-0.42-0.48-0.89-0.56-1.38c-0.08-0.5-0.08-1.19,0-2.08 C159.96,434.82,160.04,434.03,160.12,433.36z M151.35,415.65l10.59,5.86l2.76-17.58L151.35,415.65z" fill="inherit"/><path d="M191.91,432.27l-2.76-0.8l-3.63,12.5c-0.48,1.65-1.19,2.75-2.14,3.32c-0.95,0.57-2.01,0.68-3.18,0.34 c-1.26-0.37-2.11-1.06-2.56-2.07c-0.45-1.01-0.45-2.31,0.01-3.88l8.7-29.93c0.49-1.7,1.23-2.82,2.21-3.36 c0.98-0.54,2.32-0.56,4.02-0.07l12.82,3.72c1.77,0.51,3.26,1.03,4.47,1.54c1.21,0.52,2.26,1.15,3.13,1.9 c1.07,0.87,1.94,1.92,2.6,3.14c0.66,1.23,1.05,2.55,1.17,3.95c0.12,1.41-0.03,2.82-0.44,4.23c-0.84,2.9-2.33,4.98-4.48,6.24 c-2.14,1.26-4.98,1.77-8.51,1.53c1.18,1.15,2.2,2.63,3.05,4.46c0.85,1.82,1.54,3.69,2.06,5.62c0.52,1.93,0.87,3.63,1.05,5.11 c0.17,1.48,0.19,2.47,0.05,2.96c-0.15,0.51-0.46,0.97-0.93,1.38c-0.47,0.41-1.04,0.68-1.69,0.8s-1.35,0.08-2.09-0.13 c-0.88-0.26-1.57-0.68-2.05-1.27c-0.48-0.59-0.85-1.27-1.09-2.03c-0.25-0.76-0.56-1.87-0.95-3.33l-1.63-6.17 c-0.57-2.26-1.16-4.02-1.76-5.29c-0.6-1.27-1.31-2.22-2.12-2.86C194.41,433.2,193.3,432.68,191.91,432.27z M201.17,417.23 l-7.27-2.11l-3.11,10.69l7.06,2.05c1.89,0.55,3.53,0.85,4.92,0.9c1.39,0.05,2.53-0.22,3.44-0.81 c0.91-0.59,1.57-1.57,1.97-2.95c0.31-1.08,0.32-2.11,0.01-3.09c-0.31-0.98-0.89-1.82-1.75-2.51 C205.63,418.74,203.87,418.02,201.17,417.23z" fill="inherit"/><path d="M247.53,454.16l-1.63-5.19l-16.44-0.98l-2.24,5.07c-0.88,1.98-1.6,3.31-2.18,3.98 c-0.58,0.68-1.47,0.98-2.68,0.91c-1.03-0.06-1.92-0.49-2.66-1.3c-0.75-0.8-1.09-1.68-1.03-2.64 c0.03-0.55,0.16-1.12,0.38-1.69c0.22-0.58,0.57-1.38,1.06-2.4l11.92-25.64c0.34-0.74,0.75-1.62,1.22-2.65 c0.48-1.03,0.97-1.88,1.48-2.56c0.51-0.67,1.16-1.2,1.95-1.59c0.79-0.39,1.74-0.55,2.87-0.48c1.14,0.07,2.08,0.34,2.82,0.82 c0.74,0.48,1.32,1.07,1.75,1.78c0.43,0.71,0.78,1.46,1.05,2.26c0.27,0.8,0.62,1.87,1.04,3.2l9,26.73 c0.71,2.04,1.04,3.5,0.98,4.41c-0.06,0.94-0.5,1.77-1.33,2.51c-0.83,0.73-1.79,1.07-2.9,1c-0.64-0.04-1.19-0.19-1.63-0.44 c-0.45-0.26-0.81-0.59-1.1-1.01c-0.29-0.41-0.59-1.04-0.9-1.88C248.01,455.54,247.75,454.8,247.53,454.16z M231.98,441.96 l12.08,0.72l-5.1-17.05L231.98,441.96z" fill="inherit"/><path d="M272.31,420.91l19.49,20.95l-3.97-23.77c-0.26-1.54-0.12-2.76,0.42-3.64 c0.53-0.88,1.36-1.42,2.49-1.61c1.16-0.19,2.15,0.04,2.95,0.7c0.8,0.66,1.33,1.76,1.59,3.31l5.24,31.43 c0.59,3.51-0.58,5.5-3.48,5.99c-0.73,0.12-1.4,0.13-2.01,0.01c-0.62-0.11-1.22-0.35-1.8-0.72c-0.58-0.37-1.15-0.82-1.68-1.36 c-0.54-0.54-1.08-1.09-1.62-1.65l-19.07-20.74l3.91,23.41c0.25,1.53,0.09,2.74-0.49,3.64c-0.58,0.9-1.42,1.44-2.53,1.63 c-1.14,0.19-2.13-0.05-2.95-0.73c-0.82-0.68-1.36-1.77-1.61-3.28l-5.14-30.83c-0.22-1.31-0.24-2.36-0.08-3.15 c0.21-0.88,0.67-1.64,1.38-2.29c0.71-0.65,1.53-1.05,2.46-1.21c0.73-0.12,1.37-0.11,1.93,0.04c0.56,0.15,1.06,0.39,1.52,0.73 c0.46,0.33,0.94,0.79,1.46,1.35C271.23,419.7,271.76,420.29,272.31,420.91z" fill="inherit"/><path d="M326.99,407.5l-8.31,3.32l10.92,27.33c0.63,1.57,0.74,2.88,0.35,3.92c-0.4,1.04-1.15,1.78-2.26,2.23 c-1.13,0.45-2.2,0.43-3.22-0.05c-1.02-0.49-1.84-1.51-2.46-3.06l-10.92-27.33l-8.31,3.32c-1.3,0.52-2.38,0.62-3.24,0.3 c-0.86-0.32-1.48-0.95-1.86-1.89c-0.39-0.97-0.37-1.88,0.07-2.7c0.43-0.83,1.27-1.49,2.52-1.99l24.22-9.68 c1.32-0.53,2.41-0.63,3.29-0.3c0.87,0.32,1.5,0.96,1.88,1.9c0.38,0.94,0.35,1.83-0.07,2.66 C329.15,406.31,328.29,406.98,326.99,407.5z" fill="inherit"/><path d="M355.68,389.2l-15.46,10.14l5.45,8.32l14.24-9.33c1.05-0.69,1.98-0.96,2.81-0.83 c0.82,0.13,1.49,0.58,1.99,1.35c0.51,0.77,0.66,1.56,0.47,2.38c-0.19,0.82-0.82,1.58-1.88,2.27l-14.24,9.33l6.32,9.64 l15.99-10.49c1.08-0.71,2.06-0.99,2.93-0.85c0.88,0.14,1.59,0.63,2.13,1.46c0.53,0.8,0.68,1.63,0.46,2.49 c-0.22,0.86-0.87,1.64-1.95,2.35l-18.65,12.23c-1.49,0.98-2.79,1.35-3.88,1.12c-1.09-0.23-2.12-1.09-3.09-2.57l-16.7-25.47 c-0.65-0.99-1.03-1.89-1.14-2.7c-0.12-0.82,0.04-1.57,0.48-2.27c0.44-0.69,1.14-1.36,2.11-2l18.12-11.88 c1.09-0.72,2.07-1.01,2.92-0.87c0.85,0.14,1.53,0.6,2.05,1.38c0.53,0.8,0.68,1.62,0.47,2.45 C357.43,387.71,356.77,388.49,355.68,389.2z" fill="inherit"/><path d="M381.87,364.67l-13.07,13.07l7.03,7.04l12.04-12.04c0.89-0.89,1.75-1.35,2.58-1.39 c0.83-0.04,1.58,0.27,2.23,0.92c0.65,0.65,0.97,1.4,0.95,2.24c-0.02,0.84-0.48,1.71-1.38,2.61l-12.04,12.03l8.15,8.15 l13.52-13.52c0.91-0.91,1.81-1.39,2.7-1.43c0.89-0.04,1.68,0.29,2.38,1c0.68,0.68,1,1.46,0.96,2.35 c-0.04,0.89-0.52,1.78-1.43,2.7l-15.77,15.77c-1.26,1.26-2.45,1.89-3.57,1.89c-1.11-0.01-2.3-0.64-3.55-1.89l-21.53-21.54 c-0.83-0.83-1.39-1.64-1.67-2.41c-0.28-0.77-0.28-1.55,0.01-2.32c0.29-0.77,0.84-1.56,1.66-2.38l15.32-15.32 c0.93-0.93,1.82-1.41,2.68-1.45c0.86-0.04,1.62,0.27,2.29,0.94c0.68,0.68,1,1.45,0.96,2.31 C383.27,362.86,382.79,363.75,381.87,364.67z" fill="inherit"/><path d="M385.38,350.14l5.77-9c1.5-2.34,3.01-4.21,4.51-5.61c1.51-1.4,3.3-2.39,5.37-2.99 c5.32-1.6,11.08-0.42,17.28,3.56c2.05,1.31,3.8,2.69,5.26,4.13c1.46,1.44,2.63,2.97,3.51,4.58c0.88,1.61,1.48,3.35,1.81,5.2 c0.24,1.44,0.25,2.86,0.05,4.27c-0.2,1.4-0.6,2.8-1.2,4.17c-0.6,1.38-1.4,2.85-2.4,4.42l-5.77,9 c-0.81,1.26-1.6,2.08-2.39,2.47c-0.79,0.39-1.59,0.46-2.4,0.22c-0.81-0.25-1.77-0.73-2.87-1.43l-25.01-16.03 c-1.49-0.95-2.35-1.98-2.59-3.07C384.07,352.92,384.43,351.63,385.38,350.14z M392.56,350.97l23.15,14.84l3.35-5.24 c0.74-1.15,1.28-2.07,1.64-2.76c0.36-0.69,0.63-1.46,0.83-2.32c0.2-0.86,0.24-1.69,0.12-2.49c-0.47-3.56-3.1-6.88-7.88-9.94 c-3.37-2.16-6.21-3.26-8.54-3.32c-2.33-0.06-4.19,0.51-5.61,1.71c-1.41,1.2-2.79,2.85-4.15,4.96L392.56,350.97z" fill="inherit"/></g><g fill="#FFF" id="change1_4"><circle cx="59.05" cy="250" fill="inherit" r="13.57" transform="rotate(-76.932 59.043 249.998)"/><circle cx="440.95" cy="250" fill="inherit" r="13.57" transform="rotate(-76.714 440.993 250.006)"/></g></g></g></g></g></g></g></svg>